<svg id="Layer_1" data-name="Layer 1" xmlns="http://www.w3.org/2000/svg" viewBox="0 0 191.2 189.7"><defs><style>.cls-1{fill:#097782;}.cls-2,.cls-3,.cls-8{fill:#fff;}.cls-2{stroke:#eacba8;stroke-width:2px;}.cls-2,.cls-3,.cls-5{stroke-miterlimit:10;}.cls-3{stroke:#fff;}.cls-4{fill:#ffebd1;}.cls-5{fill:#e2e1df;stroke:#b6c0b6;stroke-width:0.5px;opacity:0.85;}.cls-5,.cls-6,.cls-7,.cls-9{isolation:isolate;}.cls-6{fill:#79e9ff;opacity:0.29;}.cls-7{fill:#bbe8f1;opacity:0.68;}.cls-9{font-size:28.09px;fill:#b87f33;font-family:ArialRoundedMTBold, Arial Rounded MT Bold;}.cls-10{letter-spacing:-0.05em;}.cls-11{letter-spacing:0em;}</style></defs><title>salivaLogo</title><g id="Layer_2" data-name="Layer 2"><polygon id="polygon49" class="cls-1" points="7 110.2 7 189.7 94.1 189.7 182.7 189.7 182.7 110.2 123.5 97.2 95.3 99.2 66.2 97 7 110.2"/><path id="path51" class="cls-2" d="M95.8,71.7,66.9,70.6v43.6s11.5,21,28.2,21.8h1c16.4-.9,28.7-21.8,28.7-21.8V70.9Z"/><g id="g57"><path id="path53" class="cls-2" d="M97.9,90.8C133.6,87.1,155,34.4,155,34.4H37.5S58.9,87.3,94.6,90.8Z"/><rect id="rect55" class="cls-3" x="32.3" y="31.3" width="126.6" height="5.8"/></g><path id="path59" class="cls-4" d="M95.5,68.5a28,28,0,0,1-16.9-6.1c-1.6-1.3-2.1-2.2.2-3.2,3.1-1.3,5.9-2.8,8.7-4.3a8.11,8.11,0,0,1,6.8-.6,7.79,7.79,0,0,0,2.1.4c7.3-2.4,11.7,3,17.4,5.2,2.1.9.5,1.7-.2,2.4A31.87,31.87,0,0,1,95.5,68.5Z"/><g id="g65"><path id="path61" class="cls-5" d="M112.7,77.6a2.63,2.63,0,0,0-2.8-2.6H81.4a2.55,2.55,0,0,0-.9,5l5.4,7.6v90.1h18.8V87.5l6.1-7.6A2.13,2.13,0,0,0,112.7,77.6Z"/><rect id="rect63" class="cls-6" x="87.3" y="150.2" width="15.7" height="25.3"/></g><path id="path67" class="cls-2" d="M32.8,121c9.6-1.9,18.8-4.5,28.7-5.8,7.3-.9,14.8.4,22.1,1.9,5.4,1.1,10.6,3,15.5,4.5,1.9.6,4,1.3,3.1,3.5-.7,1.7-1.6,3.5-4.7,2.8-16-2.6-32.2-3-48.2-3.7-1.4,0-3.1-.6-3.3,1.7s1.9,1.9,3.1,1.9c7.8.4,15.3.9,23,1.1,3.8,0,5.6,1.1,7,4.3s1.9,6.3.7,9.3c-.2.9,0,1.7-1.4,1.9a1.66,1.66,0,0,1-2.1-1.3L76,143c-1.6-6.3-6.6-6.5-12.2-5.6s-11.7,1.1-17.6,1.5c-1.2.2-2.8,0-2.8,1.9,0,2.4,1.9,1.9,3.3,1.7,6.3-.4,12.7-1.1,19-1.5,4.7-.4,8,2.4,7.8,6.9-.2,6.5-3.5,8.4-9.9,5.2-4-2.2-7.8-2.6-11.7-1.1-3.1,1.1-6.3,1.7-9.4,2.6-1.4.4-2.8.4-2.3,2.6.5,1.9,1.9,1.5,3.3,1.1,4-1.1,8-2.2,12-3.2,4.2-1.1,9.6,2.6,9.4,6.1,0,1.3-.7,1.9-1.9,2.4a5.35,5.35,0,0,1-1.6.4c-7.8,2.4-7.8,2.4-8.5,9.7-.5,4.5-3.8,7.3-8.5,7.3H41.3c-5.9.6-8-1.5-9.4-7.1v-.4c0-15.3-.2-30.7-.2-46,0-1.9-.9-3.5.2-5.8A3.63,3.63,0,0,1,32.8,121Z"/><path id="path69" class="cls-7" d="M94.6,64.2s-7.3,7.6,0,8.6C100.7,71.7,94.6,64.2,94.6,64.2Z"/><rect id="rect71" class="cls-1" x="21.8" y="117.8" width="12.7" height="65.5"/><path id="path1026" class="cls-7" d="M147.5,8.6s-12,12.3,0,14C158,21.2,147.5,8.6,147.5,8.6Z"/><ellipse id="path565" class="cls-8" cx="146.26" cy="20.09" rx="1.1" ry="3.4" transform="translate(38.04 120.51) rotate(-50.68)"/><path id="path1026-2" data-name="path1026" class="cls-7" d="M161.6,17.7s-12,12.3,0,14C172.1,30.3,161.6,17.7,161.6,17.7Z"/><ellipse id="path565-2" data-name="path565" class="cls-8" cx="160.35" cy="28.71" rx="1.1" ry="3.2" transform="translate(40.52 139.06) rotate(-52.79)"/><text id="text508" class="cls-9" transform="translate(0 30.58) scale(1.43 1)">SALI<tspan class="cls-10" x="64.7" y="0">V</tspan><tspan class="cls-11" x="82.6" y="0" xml:space="preserve">A  +</tspan></text><path id="path1026-3" data-name="path1026" class="cls-7" d="M156.9,0s-12,12.3,0,14C167.4,12.5,156.9,0,156.9,0Z"/><ellipse id="path565-3" data-name="path565" class="cls-8" cx="155.69" cy="11.48" rx="1.1" ry="3.4" transform="translate(48.16 124.65) rotate(-50.68)"/></g></svg>